<svg xmlns="http://www.w3.org/2000/svg" width="25" height="24" viewBox="0 0 25 24" fill="none">
  <mask id="mask0_669_73328" style="mask-type:alpha" maskUnits="userSpaceOnUse" x="0" y="0" width="25" height="24">
    <rect x="0.5" width="24" height="24" fill="#D9D9D9"/>
  </mask>
  <g mask="url(#mask0_669_73328)">
    <path d="M21.5 20.6C21.3667 20.6 21.2417 20.575 21.125 20.525C21.0083 20.475 20.9 20.4 20.8 20.3L18.5 18H8.5C7.95 18 7.47917 17.8042 7.0875 17.4125C6.69583 17.0208 6.5 16.55 6.5 16V15H17.5C18.05 15 18.5208 14.8042 18.9125 14.4125C19.3042 14.0208 19.5 13.55 19.5 13V6H20.5C21.05 6 21.5208 6.19583 21.9125 6.5875C22.3042 6.97917 22.5 7.45 22.5 8V19.575C22.5 19.875 22.4 20.1208 22.2 20.3125C22 20.5042 21.7667 20.6 21.5 20.6ZM3.5 15.6C3.23333 15.6 3 15.5042 2.8 15.3125C2.6 15.1208 2.5 14.875 2.5 14.575V4C2.5 3.45 2.69583 2.97917 3.0875 2.5875C3.47917 2.19583 3.95 2 4.5 2H15.5C16.05 2 16.5208 2.19583 16.9125 2.5875C17.3042 2.97917 17.5 3.45 17.5 4V11C17.5 11.55 17.3042 12.0208 16.9125 12.4125C16.5208 12.8042 16.05 13 15.5 13H6.5L4.2 15.3C4.1 15.4 3.99167 15.475 3.875 15.525C3.75833 15.575 3.63333 15.6 3.5 15.6Z" fill="currentColor"/>
  </g>
</svg>